<svg id="Layer_3" enable-background="new 0 0 64 64" height="512" viewBox="0 0 64 64" width="512" xmlns="http://www.w3.org/2000/svg"><g><path d="m50.944 30.777c.104-1.817.014-3.631-.269-5.414 1.968-.985 3.325-3.016 3.325-5.363 0-3.309-2.691-6-6-6-.686 0-1.342.121-1.956.334-.562-.762-1.155-1.503-1.797-2.198.562-.549.901-1.312.901-2.136 0-1.654-1.346-3-3-3-1 0-1.891.49-2.435 1.254-.851-.569-1.737-1.086-2.65-1.547.056-.229.084-.467.084-.707 0-1.654-1.346-3-3-3-1.168 0-2.19.678-2.681 1.67-1.409-.329-2.854-.538-4.319-.622 0-.016 0-.032 0-.048 0-1.654-1.346-3-3-3s-3 1.346-3 3c0 .276.038.548.11.808-1.173.442-2.279 1.061-3.271 1.831-.518-.407-1.163-.639-1.839-.639-1.654 0-3 1.346-3 3 0 .919.431 1.77 1.122 2.328-.394.862-.686 1.759-.873 2.683-1.728-.155-3.249 1.251-3.249 2.989 0 1.654 1.346 3 3 3 .243 0 .484-.031.718-.09.413.945.992 1.802 1.717 2.539-.281.462-.436.998-.436 1.551 0 1.654 1.346 3 3 3 1.313 0 2.432-.848 2.837-2.025 1.206.092 2.43-.074 3.566-.487.52.905 1.494 1.512 2.598 1.512 1.654 0 3-1.346 3-3 0-.93-.42-1.771-1.102-2.324.724-1.271 1.102-2.695 1.102-4.176v-.711c0-1.538-1.251-2.789-2.789-2.789-1.146 0-2.163.688-2.59 1.753l-.8 2.001c-.302.757-1.024 1.246-1.839 1.246-1.093 0-1.981-.889-1.981-1.981 0-2.767 2.251-5.019 5.019-5.019 3.541 0 6.935 1.506 9.311 4.131s3.538 6.153 3.185 9.676l-.098.981c-.249 2.492-1.225 4.828-2.821 6.757l-20.86 25.205c-.475.573-.736 1.299-.736 2.044 0 1.768 1.438 3.206 3.206 3.206h16.496c1.771 0 3.426-.95 4.319-2.48l2.19-3.754c.522.149 1.071.234 1.641.234 3.309 0 6-2.691 6-6 0-1.669-.686-3.179-1.789-4.268l1.855-3.18c.298-.511.574-1.033.839-1.558.032.002.063.006.095.006 3.309 0 6-2.691 6-6 0-2.239-1.234-4.192-3.056-5.223zm1.056-10.777c0 2.206-1.794 4-4 4s-4-1.794-4-4 1.794-4 4-4 4 1.794 4 4zm-36.853 39.794c0-.28.098-.553.277-.769l20.859-25.204c1.851-2.237 2.981-4.945 3.271-7.833l.098-.981c.408-4.085-.938-8.174-3.692-11.218-2.755-3.043-6.689-4.789-10.794-4.789-3.87 0-7.019 3.148-7.019 7.019 0 2.195 1.786 3.981 3.981 3.981 1.638 0 3.088-.982 3.697-2.503l.8-2.001c.121-.301.409-.496.733-.496.435 0 .789.354.789.789v.711c0 1.434-.465 2.799-1.345 3.946-.207.27-.263.626-.147.947.115.32.385.56.716.636.457.105.776.504.776.971 0 .551-.449 1-1 1-.522 0-.957-.412-.99-.938-.021-.339-.213-.644-.51-.81-.296-.166-.657-.17-.957-.01-1.338.711-2.892.927-4.357.625-.309-.064-.626.022-.862.229-.235.208-.36.514-.336.827l.012.077c0 .551-.449 1-1 1s-1-.449-1-1c0-.325.154-.621.423-.812.256-.182.412-.474.42-.789s-.131-.614-.378-.81c-1.081-.858-1.848-2.012-2.219-3.337-.092-.328-.344-.586-.669-.687-.325-.099-.679-.028-.939.192-.13.111-.347.243-.638.243-.551 0-1-.449-1-1 0-.736.87-1.256 1.528-.843.293.184.66.204.971.053s.521-.453.557-.796c.146-1.412.572-2.762 1.269-4.012.148-.267.167-.586.051-.869-.117-.282-.355-.495-.648-.58-.436-.125-.728-.508-.728-.953 0-.551.449-1 1-1 .361 0 .685.194.867.519.149.267.412.451.714.499.302.049.61-.043.834-.25 1.249-1.145 2.773-1.979 4.407-2.409.344-.09.613-.356.708-.699.095-.342.001-.709-.246-.964-.182-.19-.284-.437-.284-.696 0-.551.449-1 1-1s1 .449 1 1c0 .169-.048.338-.144.5-.18.308-.183.688-.007.999s.504.503.861.507c2.063.019 4.093.3 6.035.837.29.081.602.024.848-.15.246-.176.399-.452.417-.753.033-.527.468-.94.99-.94.551 0 1 .449 1 1 0 .264-.109.467-.201.59-.18.243-.24.553-.165.845s.278.535.553.66c1.493.682 2.918 1.524 4.235 2.505.289.214.671.258 1 .113s.555-.456.592-.814c.053-.512.477-.899.986-.899.551 0 1 .449 1 1 0 .451-.309.846-.75.961-.349.091-.622.363-.714.711-.092.349.01.72.268.972.842.822 1.602 1.727 2.314 2.669-1.378 1.1-2.265 2.791-2.265 4.687 0 .434.049.856.137 1.264.336 3.978-.532 7.912-2.513 11.38l-16.204 28.356h-7.067c-.665 0-1.206-.541-1.206-1.206zm25.853-4.794c-2.206 0-4-1.794-4-4s1.794-4 4-4 4 1.794 4 4-1.794 4-4 4zm4.338-12.455-1.773 3.039c-.779-.37-1.646-.584-2.565-.584-3.309 0-6 2.691-6 6 0 2.023 1.009 3.812 2.548 4.899l-2.107 3.612c-.536.919-1.528 1.489-2.591 1.489h-7.127l15.637-27.364c1.601-2.801 2.535-5.881 2.777-9.051 1.045.881 2.392 1.415 3.863 1.415.252 0 .499-.021.743-.051.2 1.365.279 2.749.234 4.138-.319-.053-.644-.087-.977-.087-3.309 0-6 2.691-6 6 0 2.547 1.598 4.723 3.842 5.592-.169.318-.322.641-.504.953zm2.662-2.545c-2.206 0-4-1.794-4-4s1.794-4 4-4 4 1.794 4 4-1.794 4-4 4z"/><circle cx="48" cy="20" r="2"/><circle cx="48" cy="36" r="2"/><circle cx="41" cy="51" r="2"/></g></svg>