<?xml version="1.0" encoding="iso-8859-1"?>
<!-- Generator: Adobe Illustrator 19.0.0, SVG Export Plug-In . SVG Version: 6.00 Build 0)  -->
<svg version="1.1" id="Capa_1" xmlns="http://www.w3.org/2000/svg" xmlns:xlink="http://www.w3.org/1999/xlink" x="0px" y="0px"
	 viewBox="0 0 512 512" style="enable-background:new 0 0 512 512;" xml:space="preserve">
<g>
	<g>
		<path d="M375.098,366.114c0-1.349,0.045-2.673-0.39-3.979c-1.125-3.382-4.555-5.571-8.095-5.188
			c-3.623,0.393-6.534,3.415-6.797,7.047c-0.254,3.521-0.02,22.413-0.02,22.413l-42.827,0.15l-0.189-253.611l42.895-0.005
			c0,0,0.121,185.146,0.121,189.762c0,0.838-0.004,1.677,0,2.517c0.021,4.254,3.286,7.882,7.651,7.882
			c4.432,0,7.637-3.69,7.651-7.973c0.003-0.989,0-1.978,0-2.967c0-4.742,0-188.86,0-193.582c0-3.185,0.185-6.064-2.214-8.673
			c-2.172-2.364-4.417-4.665-6.624-6.996c-4.896-5.171-104.313-110.201-104.82-110.7c-3.295-3.251-8.243-2.765-11.312,0.457
			c-2.51,2.635-107.237,113.26-110.229,116.42c-1.24,1.31-2.367,2.623-2.787,4.473c-0.21,0.927-0.202,1.828-0.202,2.763
			c0,2.942,0,5.882,0,8.824c0,5.514,0,247.132,0,252.079c0,2.247-0.029,4.497,0,6.744c0.029,2.24,0.82,4.216,2.404,5.811
			c0.754,0.759,1.522,1.505,2.284,2.257c3.905,3.861,101.704,100.555,105.887,104.689c0.927,0.916,1.854,1.833,2.782,2.75
			c2.887,2.854,7.339,3.506,10.61,0.809c2.096-1.727,3.943-3.85,5.87-5.756c4.78-4.726,101.855-100.704,105.082-103.893
			c1.256-1.241,2.412-2.454,2.942-4.233c0.386-1.297,0.328-2.62,0.328-3.952C375.098,390.584,375.098,367.962,375.098,366.114z
			 M349.667,117.641h-35.596l-32.428-71.844L349.667,117.641z M256.005,26.188l41.277,91.453h-82.555L256.005,26.188z
			 M230.367,45.797l-32.427,71.844h-35.596L230.367,45.797z M152.216,132.943h43.015v13.305c0,4.226,3.426,7.651,7.651,7.651
			c4.226,0,7.651-3.425,7.651-7.651v-13.305h90.948V386.56h-90.948V187.052c0-4.226-3.426-7.651-7.651-7.651
			c-4.226,0-7.651,3.425-7.651,7.651v199.507h-43.015V132.943z M256.005,486.778l-19.67-40.797
			c-1.835-3.807-6.408-5.403-10.215-3.57c-3.806,1.835-5.404,6.408-3.569,10.214l7.31,15.16l-66.678-65.924h34.892l10.178,21.111
			c1.835,3.807,6.409,5.404,10.215,3.57c3.806-1.835,5.404-6.408,3.569-10.214l-6.974-14.466h81.885L256.005,486.778z
			 M282.149,467.786l31.786-65.924h34.892L282.149,467.786z"/>
	</g>
</g>
<g>
</g>
<g>
</g>
<g>
</g>
<g>
</g>
<g>
</g>
<g>
</g>
<g>
</g>
<g>
</g>
<g>
</g>
<g>
</g>
<g>
</g>
<g>
</g>
<g>
</g>
<g>
</g>
<g>
</g>
</svg>
