<svg id="Capa_1" enable-background="new 0 0 512 512" height="512" viewBox="0 0 512 512" width="512" xmlns="http://www.w3.org/2000/svg"><path d="m497.001 243.164h-115.217c-13.537-78.92-82.443-139.17-165.166-139.17h-8.679c-92.407 0-167.586 75.179-167.586 167.586v76.432h-25.354c-8.284 0-14.999 6.715-14.999 14.998s6.715 14.999 14.999 14.999h21.907c-.632 4.912-.96 9.918-.96 14.999 0 8.283 6.715 14.999 14.999 14.999h129.605c8.283 0 14.999-6.715 14.999-14.999v-14.999h50.01c-.632 4.912-.96 9.918-.96 14.999 0 8.283 6.715 14.999 14.999 14.999h109.609c8.283 0 14.999-6.715 14.999-14.999v-14.999h25.55c56.378 0 102.244-45.866 102.244-102.244v-17.603c0-8.283-6.715-14.998-14.999-14.998zm-142.793 33.241c-15.008.92-29.258 4.685-42.218 10.764l-30.458-52.755 33.811-58.563c24.04 24.785 40.352 59.321 38.865 100.554zm-137.589-142.414c27.766 0 53.632 8.275 75.277 22.478l-36.341 62.946h-86.55l-36.342-62.946c21.645-14.203 47.511-22.478 75.277-22.478zm-107.404 41.86 33.811 58.563-27.286 47.261c-.118.205-.212.417-.32.625-17.145 5.801-32.517 15.481-45.07 27.99v-38.71c0-37.173 14.825-70.945 38.865-95.729zm56.337 202.158h-98.313c7.127-40.757 42.772-71.836 85.539-71.836 7.044 0 12.774 5.73 12.774 12.774zm29.997-29.997v-29.065c0-23.328-18.776-42.341-42.007-42.752l15.463-26.783h86.55l31.113 53.89c-14.319 11.954-25.743 27.263-33.051 44.709h-58.068zm158.659 29.997h-78.315c6.721-38.44 38.808-68.271 78.315-71.539v56.54zm127.795-102.244c0 39.837-32.41 72.247-72.247 72.247h-25.55v-74.851h27.657v16.013c0 8.283 6.715 14.999 14.999 14.999 8.283 0 14.999-6.715 14.999-14.999v-16.013h40.144v2.604z"/></svg>