<?xml version="1.0" encoding="iso-8859-1"?>
<!-- Generator: Adobe Illustrator 19.0.0, SVG Export Plug-In . SVG Version: 6.00 Build 0)  -->
<svg version="1.1" id="Capa_1" xmlns="http://www.w3.org/2000/svg" xmlns:xlink="http://www.w3.org/1999/xlink" x="0px" y="0px"
	 viewBox="0 0 464 464" style="enable-background:new 0 0 464 464;" xml:space="preserve">
<g>
	<g>
		<path d="M344,0h-32c-4.424,0-8,3.576-8,8v24h-16V8c0-4.424-3.576-8-8-8h-32c-4.424,0-8,3.576-8,8v24h-16V8c0-4.424-3.576-8-8-8
			h-32c-4.424,0-8,3.576-8,8v24h-16V8c0-4.424-3.576-8-8-8h-32c-4.424,0-8,3.576-8,8v448c0,4.424,3.576,8,8,8h64h96h64
			c4.424,0,8-3.576,8-8V8C352,3.576,348.424,0,344,0z M272,448h-80v-72c0-22.056,17.944-40,40-40c22.056,0,40,17.944,40,40V448z
			 M336,448h-48v-72c0-30.872-25.128-56-56-56s-56,25.128-56,56v72h-48V16h16v24c0,4.424,3.576,8,8,8h32c4.424,0,8-3.576,8-8V16h16
			v24c0,4.424,3.576,8,8,8h32c4.424,0,8-3.576,8-8V16h16v24c0,4.424,3.576,8,8,8h32c4.424,0,8-3.576,8-8V16h16V448z"/>
	</g>
</g>
<g>
	<g>
		<path d="M216,96h-32c-4.424,0-8,3.576-8,8v32c0,4.424,3.576,8,8,8h32c4.424,0,8-3.576,8-8v-32C224,99.576,220.424,96,216,96z
			 M208,128h-16v-16h16V128z"/>
	</g>
</g>
<g>
	<g>
		<path d="M280,160h-32c-4.424,0-8,3.576-8,8v32c0,4.424,3.576,8,8,8h32c4.424,0,8-3.576,8-8v-32C288,163.576,284.424,160,280,160z
			 M272,192h-16v-16h16V192z"/>
	</g>
</g>
<g>
	<g>
		<path d="M216,224h-32c-4.424,0-8,3.576-8,8v32c0,4.424,3.576,8,8,8h32c4.424,0,8-3.576,8-8v-32C224,227.576,220.424,224,216,224z
			 M208,256h-16v-16h16V256z"/>
	</g>
</g>
<g>
</g>
<g>
</g>
<g>
</g>
<g>
</g>
<g>
</g>
<g>
</g>
<g>
</g>
<g>
</g>
<g>
</g>
<g>
</g>
<g>
</g>
<g>
</g>
<g>
</g>
<g>
</g>
<g>
</g>
</svg>
